@startuml
top to bottom direction

package pkg {
    package common {
        package configuration {
            package parser {
                stereotype EscapedString <<string>> {
                    ~ escapeString(value : string) : string
                    + UnmarshalXML(decoder : *xml.Decoder, start : xml.StartElement) : error
                }
                stereotype KeyValue <<map[string]string>> {
                    + UnmarshalXML(decoder : *xml.Decoder, _ : xml.StartElement) : error
                    + MarshalXML(encoder : *xml.Encoder, start : xml.StartElement) : error
                }
                struct TemplateConfiguration {
                    + StringValue : EscapedString
                    + MapValue : KeyValue
                }
                struct FormatterConfiguration {
                    + Type : string
                    + PrettyPrint : bool
                    + KeyValueDelimiter : string
                    + PairSeparator : string
                    + Template : TemplateConfiguration
                }
                struct HandlerConfiguration {
                    + Type : string
                    + FromLevel : string
                    + ToLevel : string
                    + File : string
                    + Formatter : FormatterConfiguration
                }
                struct LoggerConfiguration {
                    + Name : string
                    + TimeFormat : string
                    + ErrorLevel : string
                    + PanicLevel : string
                    + RequestTemplate : string
                    + ResponseTemplate : string
                    + RequestMapping : KeyValue
                    + ResponseMapping : KeyValue
                    + MessageQueueSize : int
                    + Handlers : []HandlerConfiguration
                }
                struct Configuration {
                    + Loggers : []LoggerConfiguration
                }
                class "<<module>>" {
                    ~ readFile : func(name : string) : ([]byte, error)
                    ~ readFromFile(path : string, unmarshal : func([]byte, any) : error) : (*Configuration, error)
                    + ReadFromJSON(path : string) : (*Configuration, error)
                    + ReadFromYAML(path : string) : (*Configuration, error)
                    + ReadFromXML(path : string) : (*Configuration, error)
                }
                TemplateConfiguration "1" *-- "1" EscapedString : contains
                TemplateConfiguration "1" *-- "1" KeyValue : contains
                FormatterConfiguration "1" *-- "1" TemplateConfiguration : contains
                HandlerConfiguration "1" *-- "1" FormatterConfiguration : contains
                LoggerConfiguration "1" *-- "many" HandlerConfiguration : contains
                Configuration "1" *-- "many" LoggerConfiguration : contains
                "<<module>>" ..> Configuration : uses
            }
        }
        package formatter {
            class "<<module>>" {
                + ParseKey(key : string, record : logrecord.Interface) : interface{}
            }
        }
        package handler {
            interface Interface {
                + Writer() : io.Writer
                + SetWriter(writer : io.Writer)
                + FromLevel() level.Level
                + SetFromLevel(fromLevel : level.Level)
                + ToLevel() level.Level
                + SetToLevel(toLevel : level.Level)
            }
            struct Handler implements Interface {
                ~ fromLevel : level.Level
                ~ toLevel : level.Level
                ~ writer : io.Writer
                + ConsoleSupportsANSIColors : func() : bool
                + Writer() : io.Writer
                + SetWriter(writer : io.Writer)
                + FromLevel() : level.Level
                + SetFromLevel(fromLevel : level.Level)
                + ToLevel() : level.Level
                + SetToLevel(toLevel : level.Level)
            }
            class "<<module>>" {
                + New(fromLevel : level.Level, toLevel : level.Level, writer : io.Writer) : *Handler
                ~ consoleSupportsANSIColors() : bool
            }
            "<<module>>" ..> Handler : uses
        }
        package level {
            stereotype Level <<int>> {
                + String() : string
                + DigitRepresentation() : int
                + Next() : Level
                + Previous() : Level
            }
            class "<<module>>" {
                ~ mapping : map[Level]string
                + All : level.Level
                + Trace : level.Level
                + Debug : level.Level
                + Verbose : level.Level
                + Info : level.Level
                + Notice : level.Level
                + Warning : level.Level
                + Severe : level.Level
                + Error : level.Level
                + Alert : level.Level
                + Critical : level.Level
                + Emergency : level.Level
                + Null : level.Level
            }
            "<<module>>" ..> Level : uses
        }
        package logrecord {
            interface Interface {
                + Name() : string
                + Time() : string
                + Timestamp() : int64
                + Level() : level.Level
                + FileName() : string
                + FileLine() : int
            }
            struct LogRecord implements Interface {
                ~ name : string
                ~ timeFormat : string
                ~ timestamp : time.Time
                ~ level : level.Level
                ~ fileName : string
                ~ fileLine : int
                + Name() : string
                + Time() : string
                + Timestamp() : int64
                + Level() : level.Level
                + FileName() : string
                + FileLine() : int
            }
            class "<<module>>" {
                + New(name : string, level : level.Level, timeFormat : string, skipCallers : int) : *LogRecord
            }

            "<<module>>" ..> LogRecord : uses
        }
        package utils {
            class "<<module>>" {
                + StructToMap(object : interface{}) : map[string]interface{}
            }
        }
    }
    package logger {
        package configuration {
            package parser {
                struct Parser {
                    ~ configuration : *parser.Configuration
                    ~ parseFormatter(configuration : parser.FormatterConfiguration) : formatter.Interface
                    ~ parseHandler(configuration : parser.HandlerConfiguration) : handler.Interface
                    ~ parseLogger(configuration : parser.LoggerConfiguration) : *logger.Logger
                    ~ parseAsyncLogger(configuration : parser.LoggerConfiguration) : *logger.AsyncLogger
                    + GetLogger(name : string) : *logger.Logger
                    + GetAsyncLogger(name : string) : *logger.AsyncLogger
                }
                class "<<module>>" {
                    ~ parseFile(file : string, parserFunction : func(string) : (*parser.Configuration, error)) : (*Parser, error)
                    + NewParser(configuration : parser.Configuration) : *Parser
                    + ParseJSON(file : string) : (*Parser, error)
                    + ParseYAML(file : string) : (*Parser, error)
                    + ParseXML(file : string) : (*Parser, error)
                }
                "<<module>>" ..> Parser : uses
            }
        }
        package formatter {
            interface Interface {
                + Template() : string
                + Format(record : logrecord.Interface, colored : bool) : string
            }

            struct Formatter implements Interface {
                ~ template : string
                + IsEqual(anotherFormatter : *Formatter) : bool
                + Template() : string
                + Format(record : logrecord.Interface, colored : bool) : string
            }

            class "<<module>>" {
                ~ logLevelColors : map[level.Level]string
                ~ resetColor : string
                + New(template : string) : *Formatter
            }

            "<<module>>" ..> Formatter : uses
        }
        package handler {
            interface Interface {
                + Writer() : io.Writer
                + FromLevel() level.Level
                + SetFromLevel(fromLevel level.Level)
                + ToLevel() level.Level
                + SetToLevel(toLevel level.Level)
                + Formatter() : formatter.Interface
                + Write(record : logrecord.Interface)
            }
            struct Handler implements Interface {
                ~ *handler.Handler
                ~ formatter : formatter.Interface
                + Writer() : io.Writer
                + FromLevel() : level.Level
                + SetLevel(level : level.Level)
                + ToLevel() : level.Level
                + SetToLevel(level : level.Level)
                + Formatter() : formatter.Interface
                + Write(record : logrecord.Interface)
            }
            class "<<module>>" {
                ~ osOpenFile : os.OpenFile(name : string, flag : int, perm : FileMode) : (*File, error)
                ~ osStdout : *File
                ~ osStderr : *File
                + New(fromLevel : level.Level, toLevel : level.Level, newFormatter : formatter.Interface, writer : io.Writer, errorWriter : io.Writer) : *Handler
                + NewConsoleHandler(fromLevel : level.Level, toLevel : level.Level, newFormatter : formatter.Interface) : *Handler
                + NewConsoleErrorHandler(fromLevel : level.Level, toLevel : level.Level, newFormatter : formatter.Interface) : *Handler
                + NewFileHandler(fromLevel : level.Level, toLevel : level.Level, newFormatter : formatter.Interface, file : string) : *Handler
                ~ consoleSupportsANSIColors() : bool
            }

            "<<module>>" ..> Handler : uses
        }
        package logrecord {
            interface Interface {
                + Name() : string
                + Time() : string
                + Timestamp() : int64
                + Level() : level.Level
                + FileName() : string
                + FileLine() : int
                + Message() : string
            }
            struct LogRecord implements Interface {
                ~ *logrecord.LogRecord
                ~ message : string
                + Name() : string
                + Time() : string
                + Timestamp() : int64
                + Level() : level.Level
                + FileName() : string
                + FileLine() : int
                + Message() : string
            }
            class "<<module>>" {
                + New(name : string, level : level.Level, timeFormat : string, message : string, parameters : []any, skipCallers : int) : *LogRecord
            }

            "<<module>>" ..> LogRecord : uses
        }
        interface baseLoggerInterface {
            + Log(level : level.Level, skipCallers : int, message : string, parameters : ...any)
            + Name() : string
            + SetName(name : string)
            + Handlers() : []handler.Interface
            + AddHandler(handlerInterface : handler.Interface)
            + RemoveHandler(handlerInterface : handler.Interface)
        }
        struct baseLogger implements baseLoggerInterface {
            ~ name : string
            ~ timeFormat : string
            ~ handlers : []handler.Interface
            + Log(level : level.Level, skipCallers : int, message : string, parameters : ...any)
            + Name() : string
            + SetName(name : string)
            + Handlers() : []handler.Interface
            + AddHandler(handlerInterface : handler.Interface)
            + RemoveHandler(handlerInterface : handler.Interface)
        }
        interface Interface {
            + Name() : string
            + Handlers() : []handler.Interface
            + AddHandler(handlerInterface : handler.Interface)
            + RemoveHandler(handlerInterface : handler.Interface)
            + Trace(message : string, parameters : ...any)
            + Debug(message : string, parameters : ...any)
            + Verbose(message : string, parameters : ...any)
            + Info(message : string, parameters : ...any)
            + Notice(message : string, parameters : ...any)
            + Warning(message : string, parameters : ...any)
            + Severe(message : string, parameters : ...any)
            + Error(message : string, parameters : ...any)
            + Alert(message : string, parameters : ...any)
            + Critical(message : string, parameters : ...any)
            + Emergency(message : string, parameters : ...any)
            + ErrorLevel() : level.Level
            + SetErrorLevel(newLevel : level.Level)
            + PanicLevel() : level.Level
            + SetPanicLevel(newLevel : level.Level)
            + RaiseError(message : string, parameters : ...any) : error
            + CaptureError(message : error)
            + Panic(message : string, parameters : ...any)
            + WrapStruct(logLevel : level.Level, template : string, structObject : interface{})
            + RequestTemplate() : string
            + SetRequestTemplate(newTemplate : string)
            + ResponseTemplate() : string
            + SetResponseTemplate(newTemplate : string)
            + WrapRequest(logLevel : level.Level, request : *http.Request)
            + WrapResponse(logLevel : level.Level, response : *http.Response)
        }
        struct Logger implements Interface {
            ~ baseLogger : baseLoggerInterface
            ~ skipCallers : int
            ~ errorLevel : level.Level
            ~ panicLevel : level.Level
            ~ requestTemplate : string
            ~ responseTemplate : string
            + Name() : string
            + Handlers() : []handler.Interface
            + AddHandler(handlerInterface : handler.Interface)
            + RemoveHandler(handlerInterface : handler.Interface)
            + Trace(message : string, parameters : ...any)
            + Debug(message : string, parameters : ...any)
            + Verbose(message : string, parameters : ...any)
            + Info(message : string, parameters : ...any)
            + Notice(message : string, parameters : ...any)
            + Warning(message : string, parameters : ...any)
            + Severe(message : string, parameters : ...any)
            + Error(message : string, parameters : ...any)
            + Alert(message : string, parameters : ...any)
            + Critical(message : string, parameters : ...any)
            + Emergency(message : string, parameters : ...any)
            + ErrorLevel() : level.Level
            + SetErrorLevel(newLevel : level.Level)
            + PanicLevel() : level.Level
            + SetPanicLevel(newLevel : level.Level)
            + RaiseError(message : string, parameters : ...any) : error
            + CaptureError(message : error)
            + Panic(message : string, parameters : ...any)
            ~ wrapStruct(logLevel : level.Level, skipCallers : int, template : string, structObject : interface{})
            + WrapStruct(logLevel : level.Level, template : string, structObject : interface{})
            + RequestTemplate() : string
            + SetRequestTemplate(newTemplate : string)
            + ResponseTemplate() : string
            + SetResponseTemplate(newTemplate : string)
            + WrapRequest(logLevel : level.Level, request : *http.Request)
            + WrapResponse(logLevel : level.Level, response : *http.Response)
        }
        struct baseAsyncLogger implements baseLoggerInterface {
            ~ *baseLogger
            ~ messageQueue : chan logrecord.Interface
            ~ isChannelOpen : bool
            ~ waitGroup sync.WaitGroup
            ~ startListeningMessages()
            + WaitToFinishLogging()
            + Open(queueSize : int) : error
            + Close()
            + Log(level : level.Level, skipCallers : int, message : string, parameters : ...any)
        }
        interface AsyncLoggerInterface extends Interface {
            + Interface
            + WaitToFinishLogging()
            + Open(queueSize : int) : error
            + Close()
        }
        struct AsyncLogger implements AsyncLoggerInterface {
            + *Logger
            + WaitToFinishLogging()
            + Open(queueSize : int) : error
            + Close()
        }
        struct Configuration {
            ~ errorLevel : level.Level
            ~ panicLevel : level.Level
            ~ requestTemplate : string
            ~ responseTemplate : string
            ~ fromLevel : level.Level
            ~ toLevel : level.Level
            ~ template : string
            ~ file : string
            ~ name : string
            ~ timeFormat : string
        }
        stereotype Option <<func(*Configuration)>> {}
        class "<<module>>" {
            ~ rootLogger : *Logger
            ~ fromLevel : level.Level
            ~ toLevel : level.Level
            ~ template : string
            ~ defaultErrorLevel : level.Level
            ~ defaultPanicLevel : level.Level
            ~ defaultRequestTemplate : string
            ~ defaultResponseTemplate : string
            ~ init()
            + New(name : string, timeFormat : string) : *Logger
            + NewAsyncLogger(name : string, timeFormat : string, queueSize : int) : *AsyncLogger
            + WithErrorLevel(errorLevel : level.Level) : Option
            + WithPanicLevel(panicLevel : level.Level) : Option
            + WithRequestTemplate(requestTemplate : string) : Option
            + WithResponseTemplate(responseTemplate : string) : Option
            + WithFromLevel(fromLevel : level.Level) : Option
            + WithToLevel(toLevel : level.Level) : Option
            + WithTemplate(template : string) : Option
            + WithFile(file : string) : Option
            + WithName(name : string) : Option
            + WithTimeFormat(timeFormat : string) : Option
            + NewConfiguration(options : ...Option) : *Configuration
            + Configure(configuration : *Configuration)
            + Name() : string
            + Template() : string
            + FromLevel() : level.Level
            + ToLevel() : level.Level
            + Trace(message : string, parameters : ...any)
            + Debug(message : string, parameters : ...any)
            + Verbose(message : string, parameters : ...any)
            + Info(message : string, parameters : ...any)
            + Notice(message : string, parameters : ...any)
            + Warning(message : string, parameters : ...any)
            + Severe(message : string, parameters : ...any)
            + Error(message : string, parameters : ...any)
            + Alert(message : string, parameters : ...any)
            + Critical(message : string, parameters : ...any)
            + Emergency(message : string, parameters : ...any)
            + ErrorLevel() : level.Level
            + SetErrorLevel(newLevel : level.Level)
            + PanicLevel() : level.Level
            + SetPanicLevel(newLevel : level.Level)
            + RaiseError(message : string, parameters : ...any) : error
            + CaptureError(message : error)
            + Panic(message : string, parameters : ...any)
            + WrapStruct(logLevel : level.Level, template : string, structObject : interface{})
            + RequestTemplate() : string
            + SetRequestTemplate(newTemplate : string)
            + ResponseTemplate() : string
            + SetResponseTemplate(newTemplate : string)
            + WrapRequest(logLevel : level.Level, request : *http.Request)
            + WrapResponse(logLevel : level.Level, response : *http.Response)
        }

        baseAsyncLogger *-- baseLogger
        Logger *-- baseLoggerInterface
        AsyncLogger *-- Logger
        "<<module>>" ..> Logger : uses
        "<<module>>" ..> Option : uses
        "<<module>>" ..> Configuration : uses
        Option ..> Configuration : uses
    }
    package structuredlogger {
        package configuration {
            package parser {
                struct Parser {
                    ~ configuration : *parser.Configuration
                    ~ parseFormatter(configuration : parser.FormatterConfiguration) : formatter.Interface
                    ~ parseHandler(configuration : parser.HandlerConfiguration) : handler.Interface
                    ~ parseLogger(configuration : parser.LoggerConfiguration) : *structuredlogger.Logger
                    ~ parseAsyncLogger(configuration : parser.LoggerConfiguration) : *structuredlogger.AsyncLogger
                    + GetLogger(name : string) : *structuredlogger.Logger
                    + GetAsyncLogger(name : string) : *structuredlogger.AsyncLogger
                }
                class "<<module>>" {
                    ~ parseFile(file : string, parserFunction : func(string) : (*parser.Configuration, error)) : (*Parser, error)
                    + NewParser(configuration : parser.Configuration) : *Parser
                    + ParseJSON(file : string) : (*Parser, error)
                    + ParseYAML(file : string) : (*Parser, error)
                    + ParseXML(file : string) : (*Parser, error)
                }
                "<<module>>" ..> Parser : uses
            }
        }
        package formatter {
            struct baseFormatter {
                ~ template : map[string]string
                + Template() : map[string]string
                + Format(record : logrecord.Interface) : map[string]interface{}
            }

            interface Interface {
                + Template() : string
                + Format(record : logrecord.Interface, colored : bool) : string
            }

            struct JSONFormatter implements Interface {
                ~ baseFormatter : baseInterface
                ~ pretty : bool
                + Template() : string
                + Format(record : logrecord.Interface, colored : bool) : string
            }

            struct KeyValueFormatter implements Interface {
                ~ baseFormatter : baseInterface
                ~ keyValueDelimiter : string
                ~ pairSeparator : string
                + Template() : string
                + Format(record : logrecord.Interface, colored : bool) : string
            }

            class "<<module>>" {
                ~ logLevelColors : map[level.Level]string
                ~ resetColor : string
                + NewJSON(template : map[string]string, pretty : bool) : *JSONFormatter
                + NewKeyValue(template : map[string]string, keyValueDelimiter : string, pairSeparator : string) : *KeyValueFormatter
            }

            JSONFormatter *-- baseFormatter : contains
            KeyValueFormatter *-- baseFormatter : contains
            "<<module>>" ..> JSONFormatter : uses
            "<<module>>" ..> KeyValueFormatter : uses
        }
        package handler {
            interface Interface {
                + Writer() : io.Writer
                + FromLevel() level.Level
                + SetFromLevel(fromLevel level.Level)
                + ToLevel() level.Level
                + SetToLevel(toLevel level.Level)
                + Formatter() : formatter.Interface
                + Write(record : logrecord.Interface)
            }

            struct Handler implements Interface {
                ~ *handler.Handler
                ~ formatter : formatter.Interface
                + Writer() : io.Writer
                + FromLevel() : level.Level
                + SetLevel(level : level.Level)
                + ToLevel() : level.Level
                + SetToLevel(level : level.Level)
                + Formatter() : formatter.Interface
                + Write(record : logrecord.Interface)
            }

            class "<<module>>" {
                ~ osOpenFile : os.OpenFile(name : string, flag : int, perm : FileMode) : (*File, error)
                ~ osStdout : *File
                ~ osStderr : *File
                + New(fromLevel : level.Level, toLevel : level.Level, newFormatter : formatter.Interface, writer : io.Writer) : *Handler
                + NewConsoleHandler(fromLevel : level.Level, toLevel : level.Level, newFormatter : formatter.Interface) : *Handler
                + NewConsoleErrorHandler(fromLevel : level.Level, toLevel : level.Level, newFormatter : formatter.Interface) : *Handler
                + NewFileHandler(fromLevel : level.Level, toLevel : level.Level, newFormatter : formatter.Interface, file : string) : *Handler
            }

            "<<module>>" ..> Handler : uses
        }
        package logrecord {
            interface Interface {
                + Name() : string
                + Time() : string
                + Timestamp() : int64
                + Level() : level.Level
                + FileName() : string
                + FileLine() : int
                + Parameters() : map[string]interface{}
            }
            struct LogRecord implements Interface {
                ~ *logrecord.LogRecord
                ~ parameters : map[string]interface{}
                + Name() : string
                + Time() : string
                + Timestamp() : int64
                + Level() : level.Level
                + FileName() : string
                + FileLine() : int
                + Parameters() : map[string]interface{}
            }
            class "<<module>>" {
                + New(name : string, level : level.Level, timeFormat : string, parameters : map[string]interface{}, skipCallers : int) : *LogRecord
            }

            "<<module>>" ..> LogRecord : uses
        }
        interface baseLoggerInterface {
            + Log(level : level.Level, skipCallers : int, parameters : ...any)
            + Name() : string
            + SetName(name : string)
            + Handlers() : []handler.Interface
            + AddHandler(handlerInterface : handler.Interface)
            + RemoveHandler(handlerInterface : handler.Interface)
        }
        struct baseLogger implements baseLoggerInterface {
            ~ name : string
            ~ timeFormat : string
            ~ handlers : []handler.Interface
            + Log(level : level.Level, skipCallers : int, parameters : ...any)
            + Name() : string
            + SetName(name : string)
            + Handlers() : []handler.Interface
            + AddHandler(handlerInterface : handler.Interface)
            + RemoveHandler(handlerInterface : handler.Interface)
        }
        interface Interface {
            + Name() : string
            + Handlers() : []handler.Interface
            + AddHandler(handlerInterface : handler.Interface)
            + RemoveHandler(handlerInterface : handler.Interface)
            + Trace(parameters : ...any)
            + Debug(parameters : ...any)
            + Verbose(parameters : ...any)
            + Info(parameters : ...any)
            + Notice(parameters : ...any)
            + Warning(parameters : ...any)
            + Severe(parameters : ...any)
            + Error(parameters : ...any)
            + Alert(parameters : ...any)
            + Critical(parameters : ...any)
            + Emergency(parameters : ...any)
            + ErrorLevel() : level.Level
            + SetErrorLevel(newLevel : level.Level)
            + PanicLevel() : level.Level
            + SetPanicLevel(newLevel : level.Level)
            + RaiseError(message : string, parameters : ...any) : error
            + CaptureError(message : error, parameters : ...any)
            + Panic(message : string, parameters : ...any)
            + WrapStruct(logLevel : level.Level, fieldsMapping : map[string]string, structObject : interface{}, parameters : ...any)
            + RequestMapping() : map[string]string
            + SetRequestMapping(mapping : map[string]string)
            + ResponseMapping() : map[string]string
            + SetResponseMapping(mapping : map[string]string)
            + WrapRequest(logLevel : level.Level, request : *http.Request, parameters : ...any)
            + WrapResponse(logLevel : level.Level, response : *http.Response, parameters: ...any)
        }
        struct Logger implements Interface {
            ~ baseLogger : baseLoggerInterface
            ~ skipCallers : int
            ~ errorLevel : level.Level
            ~ panicLevel : level.Level
            ~ requestMapping : map[string]string
            ~ responseMapping : map[string]string
            + Name() : string
            + Handlers() : []handler.Interface
            + AddHandler(handlerInterface : handler.Interface)
            + RemoveHandler(handlerInterface : handler.Interface)
            + Trace(parameters : ...any)
            + Debug(parameters : ...any)
            + Verbose(parameters : ...any)
            + Info(parameters : ...any)
            + Notice(parameters : ...any)
            + Warning(parameters : ...any)
            + Severe(parameters : ...any)
            + Error(parameters : ...any)
            + Alert(parameters : ...any)
            + Critical(parameters : ...any)
            + Emergency(parameters : ...any)
            + ErrorLevel() : level.Level
            + SetErrorLevel(newLevel : level.Level)
            + PanicLevel() : level.Level
            + SetPanicLevel(newLevel : level.Level)
            + RaiseError(message : string, parameters : ...any) : error
            + CaptureError(message : error, parameters : ...any)
            + Panic(message : string, parameters : ...any)
            ~ wrapStruct(logLevel : level.Level, skipCallers : int, fieldsMapping : map[string]string, structObject : interface{}, parameters : ...any)
            + WrapStruct(logLevel : level.Level, fieldsMapping : map[string]string, structObject : interface{}, parameters : ...any)
            + RequestMapping() : map[string]string
            + SetRequestMapping(mapping : map[string]string)
            + ResponseMapping() : map[string]string
            + SetResponseMapping(mapping : map[string]string)
            + WrapRequest(logLevel : level.Level, request : *http.Request, parameters : ...any)
            + WrapResponse(logLevel : level.Level, response : *http.Response, parameters: ...any)
        }
        struct baseAsyncLogger implements baseLoggerInterface {
            ~ *baseLogger
            ~ messageQueue : chan logrecord.Interface
            ~ isChannelOpen : bool
            ~ waitGroup sync.WaitGroup
            ~ startListeningMessages()
            + WaitToFinishLogging()
            + Open(queueSize : int) : error
            + Close()
            + Log(level : level.Level, skipCallers : int, parameters : ...any)
        }
        interface AsyncLoggerInterface extends Interface {
            + Interface
            + WaitToFinishLogging()
            + Open(queueSize : int) : error
            + Close()
        }
        struct AsyncLogger implements AsyncLoggerInterface {
            + *Logger
            + WaitToFinishLogging()
            + Open(queueSize : int) : error
            + Close()
        }
        struct Configuration {
            ~ errorLevel : level.Level
            ~ panicLevel : level.Level
            ~ requestMapping : map[string]string
            ~ responseMapping : map[string]string
            ~ fromLevel : level.Level
            ~ toLevel : level.Level
            ~ template : map[string]string
            ~ format : string
            ~ pretty : bool
            ~ keyValueDelimiter : string
            ~ pairSeparator : string
            ~ file : string
            ~ name : string
            ~ timeFormat : string
        }
        stereotype Option <<func(*Configuration)>> {}
        class "<<module>>" {
            ~ rootLogger : *Logger
            ~ fromLevel : level.Level
            ~ toLevel : level.Level
            ~ template : map[string]string
            ~ defaultErrorLevel : level.Level
            ~ defaultPanicLevel : level.Level
            ~ defaultRequestMapping : map[string]string
            ~ defaultResponseMapping : map[string]string
            ~ init()
            + New(name : string, timeFormat : string) : *Logger
            + NewAsyncLogger(name : string, timeFormat : string, queueSize : int) : *AsyncLogger
            + WithErrorLevel(errorLevel : level.Level) : Option
            + WithPanicLevel(panicLevel : level.Level) : Option
            + WithRequestMapping(mapping : map[string]string) : Option
            + WithResponseMapping(mapping : map[string]string) : Option
            + WithFromLevel(fromLevel : level.Level) : Option
            + WithToLevel(toLevel : level.Level) : Option
            + WithTemplate(template : map[string]string) : Option
            + WithFile(file : string) : Option
            + WithFormat(format : string) : Option
            + WithPretty(pretty : bool) : Option
            + WithKeyValueDelimiter(keyValueDelimiter : string) : Option
            + WithPairSeparator(pairSeparator : string) : Option
            + WithName(name : string) : Option
            + WithTimeFormat(timeFormat : string) : Option
            + NewConfiguration(options : ...Option) : *Configuration
            + Configure(configuration : *Configuration)
            + Name() : string
            + Template() : string
            + FromLevel() : level.Level
            + ToLevel() : level.Level
            + Trace(message : string, parameters : ...any)
            + Debug(message : string, parameters : ...any)
            + Verbose(message : string, parameters : ...any)
            + Info(message : string, parameters : ...any)
            + Notice(message : string, parameters : ...any)
            + Warning(message : string, parameters : ...any)
            + Severe(message : string, parameters : ...any)
            + Error(message : string, parameters : ...any)
            + Alert(message : string, parameters : ...any)
            + Critical(message : string, parameters : ...any)
            + Emergency(message : string, parameters : ...any)
            + ErrorLevel() : level.Level
            + SetErrorLevel(newLevel : level.Level)
            + PanicLevel() : level.Level
            + SetPanicLevel(newLevel : level.Level)
            + RaiseError(message : string, parameters : ...any) : error
            + CaptureError(message : error, parameters : ...any)
            + Panic(message : string, parameters : ...any)
            + WrapStruct(logLevel : level.Level, fieldsMapping : map[string]string, structObject : interface{}, parameters : ...any)
            + RequestMapping() : map[string]string
            + SetRequestMapping(mapping : map[string]string)
            + ResponseMapping() : map[string]string
            + SetResponseMapping(mapping : map[string]string)
            + WrapRequest(logLevel : level.Level, request : *http.Request, parameters : ...any)
            + WrapResponse(logLevel : level.Level, response : *http.Response, parameters: ...any)
        }

        baseAsyncLogger *-- baseLogger
        Logger *-- baseLoggerInterface
        AsyncLogger *-- Logger
        "<<module>>" ..> Logger : uses
        "<<module>>" ..> Option : uses
        "<<module>>" ..> Configuration : uses
        Option ..> Configuration : uses
    }
}

pkg.logger.configuration.parser.Parser *-- pkg.common.configuration.parser.Configuration : contains
pkg.structuredlogger.configuration.parser.Parser *-- pkg.common.configuration.parser.Configuration : contains
pkg.logger.configuration.parser.Parser ..> pkg.logger.Logger : uses
pkg.logger.configuration.parser.Parser ..> pkg.logger.AsyncLogger : uses
pkg.structuredlogger.configuration.parser.Parser ..> pkg.structuredlogger.Logger : uses
pkg.structuredlogger.configuration.parser.Parser ..> pkg.structuredlogger.AsyncLogger : uses
"pkg.common.formatter.<<module>>" ..> "pkg.common.logrecord.Interface" : uses
pkg.common.handler.Handler *-- pkg.common.level.Level : contains
pkg.logger.handler.Handler *-- pkg.common.handler.Handler : contains
pkg.logger.handler.Handler *-- pkg.logger.formatter.Interface : contains
pkg.logger.baseLogger *-- "0..*" pkg.logger.handler.Interface : contains
pkg.logger.formatter.Formatter ..> "pkg.common.formatter.<<module>>" : uses
pkg.structuredlogger.handler.Handler *-- pkg.common.handler.Handler : contains
pkg.structuredlogger.handler.Handler *-- pkg.structuredlogger.formatter.Interface : contains
pkg.structuredlogger.baseLogger *-- "0..*" pkg.structuredlogger.handler.Interface : contains
pkg.structuredlogger.formatter.baseFormatter ..> "pkg.common.formatter.<<module>>" : uses
pkg.logger.logrecord.LogRecord *-- "pkg.common.logrecord.LogRecord" : contains
pkg.structuredlogger.logrecord.LogRecord *-- "pkg.common.logrecord.LogRecord" : contains
pkg.logger.handler.Handler ..> pkg.logger.logrecord.Interface : uses
pkg.structuredlogger.handler.Handler ..> pkg.structuredlogger.logrecord.Interface : uses
pkg.logger.Logger ..> "pkg.common.utils.<<module>>" : uses
pkg.structuredlogger.Logger ..> "pkg.common.utils.<<module>>" : uses

@enduml